<svg id="visual" viewBox="0 0 900 100" width="900" height="100" xmlns="http://www.w3.org/2000/svg" xmlns:xlink="http://www.w3.org/1999/xlink" version="1.1"><rect x="0" y="0" width="900" height="100" fill="#20368F"></rect><path d="M0 45L8.3 42.7C16.7 40.3 33.3 35.7 50 33.3C66.7 31 83.3 31 100 39.2C116.7 47.3 133.3 63.7 150 62.7C166.7 61.7 183.3 43.3 200 38.7C216.7 34 233.3 43 250 52.7C266.7 62.3 283.3 72.7 300 77.5C316.7 82.3 333.3 81.7 350 76.2C366.7 70.7 383.3 60.3 400 51.8C416.7 43.3 433.3 36.7 450 33.5C466.7 30.3 483.3 30.7 500 29.2C516.7 27.7 533.3 24.3 550 26.2C566.7 28 583.3 35 600 33.8C616.7 32.7 633.3 23.3 650 27.3C666.7 31.3 683.3 48.7 700 52C716.7 55.3 733.3 44.7 750 35C766.7 25.3 783.3 16.7 800 11.8C816.7 7 833.3 6 850 8.5C866.7 11 883.3 17 891.7 20L900 23L900 0L891.7 0C883.3 0 866.7 0 850 0C833.3 0 816.7 0 800 0C783.3 0 766.7 0 750 0C733.3 0 716.7 0 700 0C683.3 0 666.7 0 650 0C633.3 0 616.7 0 600 0C583.3 0 566.7 0 550 0C533.3 0 516.7 0 500 0C483.3 0 466.7 0 450 0C433.3 0 416.7 0 400 0C383.3 0 366.7 0 350 0C333.3 0 316.7 0 300 0C283.3 0 266.7 0 250 0C233.3 0 216.7 0 200 0C183.3 0 166.7 0 150 0C133.3 0 116.7 0 100 0C83.3 0 66.7 0 50 0C33.3 0 16.7 0 8.3 0L0 0Z" fill="#323232" stroke-linecap="round" stroke-linejoin="miter"></path></svg>