<svg id="visual" viewBox="0 0 900 30" width="900" height="30" xmlns="http://www.w3.org/2000/svg" xmlns:xlink="http://www.w3.org/1999/xlink" version="1.1"><rect x="0" y="0" width="900" height="30" fill="#20368F"></rect><path d="M0 8L7.8 9.2C15.7 10.3 31.3 12.7 47.2 15.5C63 18.3 79 21.7 94.8 22C110.7 22.3 126.3 19.7 142 16.2C157.7 12.7 173.3 8.3 189.2 8.5C205 8.7 221 13.3 236.8 13.7C252.7 14 268.3 10 284.2 7.7C300 5.3 316 4.7 331.8 5.8C347.7 7 363.3 10 379 9.7C394.7 9.3 410.3 5.7 426.2 5.2C442 4.7 458 7.3 473.8 11.7C489.7 16 505.3 22 521 20.3C536.7 18.7 552.3 9.3 568.2 9C584 8.7 600 17.3 615.8 20.5C631.7 23.7 647.3 21.3 663.2 19.5C679 17.7 695 16.3 710.8 17.2C726.7 18 742.3 21 758 21.7C773.7 22.3 789.3 20.7 805.2 19.3C821 18 837 17 852.8 13.8C868.7 10.7 884.3 5.3 892.2 2.7L900 0L900 0L892.2 0C884.3 0 868.7 0 852.8 0C837 0 821 0 805.2 0C789.3 0 773.7 0 758 0C742.3 0 726.7 0 710.8 0C695 0 679 0 663.2 0C647.3 0 631.7 0 615.8 0C600 0 584 0 568.2 0C552.3 0 536.7 0 521 0C505.3 0 489.7 0 473.8 0C458 0 442 0 426.2 0C410.3 0 394.7 0 379 0C363.3 0 347.7 0 331.8 0C316 0 300 0 284.2 0C268.3 0 252.7 0 236.8 0C221 0 205 0 189.2 0C173.3 0 157.7 0 142 0C126.3 0 110.7 0 94.8 0C79 0 63 0 47.2 0C31.3 0 15.7 0 7.8 0L0 0Z" fill="#6D6D6D" stroke-linecap="round" stroke-linejoin="miter"></path></svg>